HIERARCHY
ROOT Root
{
  OFFSET 0.506869 12.0067 -25.1643
  CHANNELS 6 Xposition Yposition Zposition Zrotation Xrotation Yrotation
  JOINT Spine
  {
    OFFSET 5.3114 0 0
    CHANNELS 3 Zrotation Xrotation Yrotation
    JOINT Spine1
    {
      OFFSET 2.79004 0 0
      CHANNELS 3 Zrotation Xrotation Yrotation
      JOINT Neck
      {
        OFFSET 1.43377 0 0
        CHANNELS 3 Zrotation Xrotation Yrotation
        JOINT Head
        {
          OFFSET 1.86043 0 0
          CHANNELS 3 Zrotation Xrotation Yrotation
          End Site
          {
            OFFSET 0 0 0
          }
        }
      }
      JOINT LeftArm
      {
        OFFSET 0.0387506 0 2.55754
        CHANNELS 3 Zrotation Xrotation Yrotation
        JOINT LeftForeArm
        {
          OFFSET 4.24845 0 0
          CHANNELS 3 Zrotation Xrotation Yrotation
          JOINT LeftHand
          {
            OFFSET 4.01008 0 0
            CHANNELS 3 Zrotation Xrotation Yrotation
            End Site
            {
              OFFSET 0 0 0
            }
          }
        }
      }
      JOINT RightArm
      {
        OFFSET 0.0387506 0 -2.55754
        CHANNELS 3 Zrotation Xrotation Yrotation
        JOINT RightForeArm
        {
          OFFSET -4.24845 0 0
          CHANNELS 3 Zrotation Xrotation Yrotation
          JOINT RightHand
          {
            OFFSET -4.01009 0 0
            CHANNELS 3 Zrotation Xrotation Yrotation
            End Site
            {
              OFFSET 0 0 0
            }
          }
        }
      }
    }
  }
  JOINT LeftUpLeg
  {
    OFFSET -1.23318 0 2.05692
    CHANNELS 3 Zrotation Xrotation Yrotation
    JOINT LeftLeg
    {
      OFFSET 5.46397 0 0
      CHANNELS 3 Zrotation Xrotation Yrotation
      JOINT LeftFoot
      {
        OFFSET 4.68898 0 0
        CHANNELS 3 Zrotation Xrotation Yrotation
        End Site
        {
          OFFSET 0 0 0
        }
      }
    }
  }
  JOINT RightUpLeg
  {
    OFFSET -1.24454 0 -2.05007
    CHANNELS 3 Zrotation Xrotation Yrotation
    JOINT RightLeg
    {
      OFFSET -5.46397 0 0
      CHANNELS 3 Zrotation Xrotation Yrotation
      JOINT RightFoot
      {
        OFFSET -4.68901 0 0
        CHANNELS 3 Zrotation Xrotation Yrotation
        End Site
        {
          OFFSET 0 0 0
        }
      }
    }
  }
}
MOTION
Frames:	16
Frame Time:	0.00833333
0.506869 12.0067 -25.1643 -0 90 90 9.69808e-018 1.34041e-020 0.158382 1.41245e-030 7.06225e-031 2.48481e-017 -7.30747e-017 7.61111e-019 -1.19349 3.40995e-017 1.65719e-019 0.556895 -2.12238e-008 -1.53545e-005 -90.1584 -2.50273e-005 -2.47192e-012 6.55612e-006 1.52588e-005 -6.98387e-015 174.455 180 -4.60993e-005 -89.8417 -5.49628e-005 -2.25992e-011 3.612e-005 1.52588e-005 6.98387e-015 174.455 -0.312568 0.00637761 179.241 -0.678879 0.00485398 -0.879807 0.366247 0.00300475 -178.362 179.155 0.0175308 179.241 -1.88506 0.0112259 -0.878983 1.0398 0.0110444 -178.678 
0.517487 11.9932 -25.0693 87.0444 88.8286 1.94277 0.982253 -0.633324 1.84435 -1.50474 -0.267942 1.54654 3.91469 -0.697533 -4.77608 -1.91734 0.423106 1.96003 6.40056 -0.832406 -115.317 5.16026 -0.223655 3.06898 0.84038 5.97174 174.375 -174.351 -2.51995 -108.512 8.78032 0.228832 5.13565 0.0155563 0.110592 174.455 -7.57318 -1.50852 -179.152 -4.24641 0.0775396 -0.868471 -0.987676 -0.659457 -178.522 -175.854 -2.3247 178.07 -10.2125 0.147979 -0.823432 5.82142 -2.0097 -178.166 
0.527746 11.978 -24.9787 86.3094 87.5793 1.57785 2.05588 -1.29709 3.66714 -3.08599 -0.549494 3.16815 7.97326 -1.4257 -8.5691 -3.97568 0.870605 3.44268 12.0769 -3.19933 -141.867 10.6841 -0.456357 6.33886 1.74332 12.2078 174.225 -170.937 -10.081 -127.444 18.0031 0.461626 10.5567 0.0348018 0.247543 174.455 -15.1872 -3.1362 -177.409 -7.98288 0.153193 -0.856974 -2.40847 -1.42802 -178.694 -170.654 -4.83119 176.789 -18.8737 0.291462 -0.7662 11.0564 -4.17359 -177.598 
0.538723 11.9662 -24.8793 85.02 86.4857 1.94384 3.05846 -1.89308 5.2188 -4.47088 -0.801482 4.64003 11.4843 -2.05444 -11.948 -5.81412 1.26567 4.76732 15.3824 -5.64494 -165.602 15.5524 -0.663272 9.20749 2.60564 17.9095 174.018 -171.853 -19.5539 -143.98 26.2196 0.664492 15.4078 0.0466388 0.331776 174.454 -21.8392 -4.5274 -175.928 -11.3816 0.222912 -0.845803 -3.70662 -1.98464 -178.841 -166.16 -6.99357 175.701 -26.8682 0.421495 -0.712343 15.4939 -6.04673 -177.128 
0.55149 11.9626 -24.7577 83.2786 85.7796 3.20254 3.80138 -2.32676 6.09019 -5.39453 -0.981676 5.73722 13.8104 -2.46996 -14.2853 -7.05876 1.53298 5.69597 16.6438 -6.69137 177.754 18.731 -0.813218 11.0724 3.30098 22.2796 173.805 -175.408 -26.5112 -156.105 32.0028 0.812664 18.8332 0.0399542 0.284217 174.455 -26.2839 -5.34062 -175.116 -13.9356 0.277793 -0.835443 -4.68829 -2.01117 -178.924 -163.203 -8.31168 175.121 -33.1952 0.517895 -0.666916 17.8504 -7.19727 -176.914 
0.566866 11.9696 -24.6044 80.5961 85.6285 6.04351 4.11682 -2.68976 5.9675 -5.7246 -1.11171 6.44937 14.7364 -2.57914 -15.2483 -7.55527 1.74906 6.04345 17.093 -6.03137 171.047 19.4717 -0.890893 11.5021 3.73248 24.869 173.646 -177.31 -28.8627 -161.1 34.4315 0.901555 20.2718 0.000153757 0.00100782 174.455 -27.7327 -5.34794 -175.278 -15.3212 0.312812 -0.82621 -5.28856 -1.18899 -178.912 -162.235 -8.41649 175.298 -37.1699 0.568074 -0.634785 17.3111 -7.3258 -177.081 
0.5841 11.9843 -24.4286 76.6794 85.8538 10.5737 4.11449 -2.99625 5.13601 -5.63122 -1.20394 6.87976 14.6712 -2.47742 -15.2244 -7.5078 1.92321 5.9769 17.197 -4.43106 171.469 18.4679 -0.918222 10.9077 3.95981 26.1834 173.547 -176.649 -28.0367 -160.481 34.4727 0.95255 20.2906 -0.0629592 -0.448086 174.454 -27.0392 -4.77934 -176.135 -15.8713 0.3336 -0.817783 -5.61643 0.234279 -178.832 -162.694 -7.65586 176.013 -39.4651 0.585196 -0.612078 14.704 -6.7245 -177.52 
0.601916 12.0036 -24.2448 71.8832 86.1742 16.1235 4.02915 -3.03624 4.08484 -5.30784 -1.2031 6.97379 13.9215 -2.34092 -14.665 -7.07801 1.88003 5.78651 16.7144 -2.77058 174.975 16.8465 -0.921556 9.9516 4.08029 26.8587 173.485 -175.346 -25.6952 -157.915 33.5334 0.983869 19.7258 -0.123904 -0.881713 174.454 -25.4399 -3.98571 -177.219 -16.0651 0.347239 -0.809689 -5.73604 1.72743 -178.733 -163.863 -6.61058 176.896 -41.1168 0.587706 -0.59075 11.1996 -5.85013 -178.04 
0.619039 12.0249 -24.0677 67.9282 86.3431 20.6606 4.11775 -2.59925 3.3044 -4.94567 -1.05362 6.6769 12.7965 -2.34605 -14.0208 -6.43153 1.44369 5.7628 15.8424 -1.96494 177.573 15.7353 -0.927451 9.29584 4.20094 27.5299 173.425 -175.245 -23.4712 -157.031 33.0171 1.01209 19.4139 -0.157194 -1.11852 174.454 -24.2068 -3.32279 -178.069 -16.3817 0.360808 -0.801455 -5.7041 2.7594 -178.666 -164.987 -5.86691 177.585 -43.1611 0.594047 -0.562755 7.94862 -5.16099 -178.457 
0.635768 12.0487 -23.8997 66.3333 86.3362 22.5603 4.48935 -1.3285 2.96234 -4.4799 -0.643192 5.70668 11.0088 -2.59944 -13.1833 -5.38003 0.305847 6.00565 14.5676 -2.46631 178.926 15.3287 -0.939079 9.05475 4.35219 28.3676 173.355 -176.715 -21.1903 -158.634 33.1527 1.03914 19.4914 -0.14826 -1.05491 174.454 -23.6058 -2.83908 -178.548 -16.9775 0.376017 -0.792066 -5.44658 3.14986 -178.646 -165.963 -5.56277 177.974 -45.7684 0.605934 -0.526294 4.86506 -4.651 -178.721 
0.652571 12.0761 -23.7334 66.0224 86.288 23.0732 5.00463 0.563975 2.78761 -3.82159 -0.0311992 4.18225 8.52871 -2.98888 -11.9882 -3.89755 -1.35098 6.35663 12.8686 -3.71132 -179.074 15.0613 -0.943514 8.89595 4.47404 29.0328 173.297 -178.675 -18.1097 -160.747 33.2401 1.05694 19.5413 -0.113287 -0.806007 174.454 -22.9875 -2.36115 -178.908 -17.5873 0.389149 -0.782072 -4.9609 3.19499 -178.646 -167.154 -5.39266 178.261 -48.4213 0.614597 -0.485541 1.46427 -4.11876 -178.932 
0.66842 12.1048 -23.5693 66.0772 86.2223 23.2285 5.54937 2.43412 2.6106 -3.14456 0.577599 2.65052 6.04877 -3.36274 -10.8024 -2.40186 -2.96706 6.71618 11.2737 -5.15487 -177.053 14.9194 -0.943764 8.81152 4.54131 29.3962 173.264 179.589 -15.0317 -162.75 33.2882 1.067 19.5686 -0.0729001 -0.518571 174.454 -22.2825 -1.9147 -179.27 -18.0581 0.399148 -0.773343 -4.40639 3.07862 -178.655 -168.462 -5.28083 178.542 -51.1245 0.622757 -0.441414 -1.71976 -3.73066 -179.128 
0.68229 12.1324 -23.4078 65.6105 86.1598 24.0244 6.02007 3.63836 2.25787 -2.664 0.97539 1.65781 4.24124 -3.56667 -9.99342 -1.33437 -3.98532 6.97767 10.1881 -6.25812 -175.646 14.8893 -0.942844 8.79359 4.52881 29.3287 173.269 178.545 -12.8491 -164.15 33.3063 1.07082 19.5788 -0.0477177 -0.339347 174.454 -21.4179 -1.52527 -179.751 -18.237 0.404959 -0.767748 -3.94255 2.98459 -178.664 -169.791 -5.15124 178.912 -53.8823 0.633133 -0.394832 -4.15416 -3.65304 -179.346 
0.69336 12.1591 -23.2496 64.5499 86.0637 25.6116 6.39226 3.92206 1.61496 -2.50477 1.07974 1.43366 3.32717 -3.51786 -9.72263 -0.835944 -4.14083 7.10611 9.7255 -6.82824 -175.134 15.0163 -0.94056 8.86901 4.40847 28.6757 173.327 178.256 -12.0062 -164.824 33.3182 1.07279 19.5859 -0.04815 -0.342441 174.454 -20.3077 -1.18886 179.572 -17.9918 0.405007 -0.766415 -3.62529 2.90448 -178.674 -171.151 -5.04094 179.439 -56.7898 0.647919 -0.343944 -5.76459 -4.03287 -179.629 
0.70236 12.1859 -23.0942 63.3902 85.9344 27.4202 6.70347 3.65495 0.796426 -2.54643 1.00945 1.65857 2.92618 -3.31164 -9.77322 -0.67516 -3.77084 7.15753 9.61874 -7.17352 -175.146 15.2914 -0.935638 9.03233 4.20377 27.5461 173.423 178.358 -12.0054 -165.103 33.3121 1.07079 19.5827 -0.061562 -0.43793 174.454 -19.0117 -0.895503 178.777 -17.4346 0.400285 -0.768136 -3.36518 2.75938 -178.688 -172.579 -4.9711 -179.943 -59.8133 0.665174 -0.288961 -6.82102 -4.74726 -179.947 
0.710588 12.2117 -22.9408 62.036 85.8467 29.4255 6.94953 3.13064 -0.0296692 -2.65478 0.858633 2.05563 2.79967 -3.06029 -9.94546 -0.745111 -3.22294 7.15792 9.63469 -7.51528 -175.344 15.6196 -0.929462 9.22721 3.96631 26.2054 173.531 178.594 -12.3558 -165.211 33.2427 1.05652 19.5432 -0.0740025 -0.526515 174.454 -17.677 -0.661687 177.977 -16.7785 0.393595 -0.771283 -3.10349 2.62743 -178.702 -174.031 -4.84186 -179.337 -62.7644 0.681419 -0.233883 -7.3032 -5.5577 179.773 
